<?xml version="1.0" encoding="UTF-8"?>
<svg width="65" height="65" viewBox="0 0 65 65" fill="none" xmlns="http://www.w3.org/2000/svg">
  <path d="M53.1,0H11.9C5.3,0,0,5.3,0,11.9v41.2C0,59.7,5.3,65,11.9,65h41.2C59.7,65,65,59.7,65,53.1V11.9C65,5.3,59.7,0,53.1,0z" fill="#FF5A81"/>
  <path d="M13.7,26.5c-2,0-3.9-0.4-5.3-1.2c-1.6-0.9-2.7-2-3.6-3.4c-0.8-1.4-1.2-3.1-1.2-4.9s0.4-3.3,1.2-4.8c0.8-1.4,2-2.7,3.6-3.4c1.6-0.9,3.3-1.2,5.3-1.2c1.2,0,2.4,0.2,3.4,0.6c1,0.3,1.9,0.8,2.6,1.2v5.1h-0.3c-1.1-0.8-2.1-1.4-3-1.8c-0.9-0.3-1.9-0.6-2.9-0.6c-0.8,0-1.7,0.2-2.4,0.6c-0.8,0.3-1.4,0.9-2,1.7C8.5,15,8.3,15.9,8.3,17s0.2,2,0.8,2.8c0.6,0.8,1.2,1.3,2,1.7c0.8,0.3,1.7,0.6,2.4,0.6c1,0,2-0.2,2.9-0.6c0.9-0.3,1.9-0.9,2.9-1.8h0.3v5.1c-0.6,0.4-1.4,0.9-2.4,1.2C16.2,26.4,15.1,26.5,13.7,26.5L13.7,26.5z" fill="#FFFFFF"/>
  <path d="M20.4,28.9L27.8,7l4.6,1.6L25,30.4L20.4,28.9z" fill="#FFFFFF"/>
  <path d="M39.5,36.8c-1.7,0.4-3.3,0.4-4.6-0.2c-1.4-0.6-2.3-1.7-2.7-3.4c-0.5-1.9,0-3.6,1.4-4.9c1.4-1.4,3.4-2.4,6-3c1.4-0.4,2.9-0.6,4.5-0.9L44,24.1c-0.3-0.8-0.8-1.4-1.4-1.7c-0.7-0.4-1.3-0.6-2-0.6c-0.7-0.1-1.5,0-2.2,0.2c-1.2,0.3-2.3,0.8-3.3,1.5c-1.1,0.7-1.9,1.5-2.6,2.5L32.2,26l-1.2-4.6c0.8-0.9,1.8-1.6,3-2.2c1.2-0.7,2.4-1.2,3.8-1.5c1.9-0.5,3.6-0.6,5.1-0.1c1.5,0.4,2.8,1.1,3.8,2.3c1,1.1,1.7,2.4,2,4l2.5,10l-4.4,1.1l-1.4-6.8l-0.3,0.1C46.7,34.2,42.2,36.1,39.5,36.8z M40.2,33c1.4-0.4,2.5-1.1,3.2-2.3c0.6-1.1,0.8-2.6,0.5-4.4L41.3,27c-2,0.5-3.4,1.1-4.1,1.8c-0.7,0.8-1,1.5-0.8,2.4c0.2,0.9,0.7,1.4,1.3,1.6C38.5,33.2,39.3,33.2,40.2,33z" fill="#FFFFFF"/>
  <path d="M25.3,54c-1.7,0.6-3.3,0.7-4.6,0.3c-1.5-0.4-2.4-1.5-3.1-3.1c-0.7-1.9-0.4-3.5,0.8-5.1c1.2-1.5,3.1-2.7,5.6-3.6c1.4-0.5,2.9-0.9,4.3-1.4l-0.1-0.2c-0.4-0.8-1-1.3-1.5-1.6c-0.7-0.3-1.4-0.4-2.1-0.4s-1.5,0.2-2.2,0.5c-1.1,0.4-2.2,1.1-3.1,1.9c-1,0.8-1.7,1.7-2.3,2.7l-0.3,0.1l-1.7-4.5c0.7-1,1.6-1.8,2.7-2.6c1.1-0.8,2.3-1.4,3.7-2c1.9-0.7,3.6-1,5.1-0.7c1.5,0.3,2.9,0.8,4,1.8c1.1,1,1.9,2.3,2.4,3.7l3.6,9.7l-4.3,1.6l-2.1-6.6L30,44.8C32.2,50.6,27.9,53,25.3,54L25.3,54z M25.6,50.1c1.4-0.5,2.3-1.3,2.9-2.6c0.5-1.1,0.5-2.7,0-4.4L26.1,44c-2,0.7-3.3,1.4-3.9,2.3c-0.6,0.8-0.8,1.6-0.5,2.4s0.9,1.3,1.5,1.5C23.8,50.5,24.7,50.4,25.6,50.1z" fill="#FFFFFF"/>
  <path d="M35.3,56.1l12.1-19.7l4.3,2.6l-3.8,5.1l0.2,0.1c1.1-1.3,2.2-2.2,3.4-2.6c1.2-0.4,2.2-0.6,3.3-0.5c1.1,0.1,2,0.6,2.8,1.1c1.4,0.9,2.3,1.9,3,3.2c0.6,1.3,0.8,2.8,0.6,4.4c-0.2,1.6-0.8,3.2-1.7,4.7c-0.9,1.5-2.1,2.8-3.5,3.7c-1.3,0.9-2.7,1.4-4.2,1.5c-1.5,0.1-2.9-0.3-4.2-1.2c-1.1-0.7-2-1.5-2.6-2.4c-0.6-0.9-1-1.9-1-3.2c0-1.3,0.4-2.8,1.3-4.4l-0.3-0.2l-1.8,4.1l-3.7,6.1L35.3,56.1L35.3,56.1z M48.1,53.4c0.9,0.6,1.8,0.9,2.7,1c0.8,0.1,1.7,0,2.6-0.4c0.8-0.4,1.5-1,2.1-2c0.6-0.9,0.9-1.8,0.7-2.7c0-0.9-0.3-1.7-0.8-2.5c-0.5-0.7-1.2-1.4-2.1-1.9c-0.9-0.5-1.8-0.9-2.7-1c-0.8-0.1-1.7,0-2.6,0.4c-0.8,0.4-1.5,1-2.1,1.9c-0.6,0.9-0.9,1.8-0.8,2.8c0,0.9,0.3,1.7,0.8,2.5C46.5,52.1,47.3,52.8,48.1,53.4L48.1,53.4z" fill="#FFFFFF"/>
</svg>
