<svg width="35" height="35" viewBox="0 0 35 35" fill="none" xmlns="http://www.w3.org/2000/svg">
<path d="M28.2119 0.337952H6.11204C2.73645 0.337952 0 3.07441 0 6.45001V28.55C0 31.9256 2.73645 34.6621 6.11204 34.6621H28.2119C31.5875 34.6621 34.324 31.9256 34.324 28.55V6.45001C34.324 3.07441 31.5875 0.337952 28.2119 0.337952Z" fill="#FF4D4D"/>
<path d="M18.1641 16.0702H16.2996C15.805 16.0702 15.404 16.4712 15.404 16.9659V18.2213C15.404 18.7159 15.805 19.117 16.2996 19.117H18.1641C18.6588 19.117 19.0598 18.7159 19.0598 18.2213V16.9659C19.0598 16.4712 18.6588 16.0702 18.1641 16.0702Z" fill="white"/>
<path d="M25.1547 15.1745V13.1811C25.053 11.5932 23.9667 10.2748 22.5006 9.8277C22.3731 9.78901 22.2412 9.75605 22.108 9.73168V8.94349C22.108 8.44908 21.7067 8.04782 21.2123 8.04782H19.6517C19.1572 8.04782 18.756 8.44908 18.756 8.94349V9.67293H15.7092V8.94349C15.7092 8.44908 15.308 8.04782 14.8136 8.04782H13.2529C12.7585 8.04782 12.3573 8.44908 12.3573 8.94349V9.73455C12.224 9.75891 12.095 9.79187 11.9689 9.83057C10.4298 10.302 9.31195 11.7337 9.31195 13.4261V21.7623C9.31195 23.4548 10.4298 24.8864 11.9689 25.3579C12.2426 25.4425 12.5307 25.4969 12.8287 25.5156H21.6465C21.9417 25.4969 22.2269 25.4439 22.4992 25.3594C23.9667 24.9137 25.053 23.5952 25.1547 22.0074V20.014C25.1547 19.5196 24.7534 19.1183 24.259 19.1183H23.0036C22.5092 19.1183 22.108 19.5196 22.108 20.014V20.1401C22.108 21.4256 21.0647 22.4688 19.7792 22.4688H14.6875C13.402 22.4688 12.3587 21.4256 12.3587 20.1401V15.0484C12.3587 13.7629 13.402 12.7196 14.6875 12.7196H19.7792C21.0647 12.7196 22.108 13.7629 22.108 15.0484V15.1745C22.108 15.6689 22.5092 16.0702 23.0036 16.0702H24.259C24.7534 16.0702 25.1547 15.6689 25.1547 15.1745Z" fill="white"/>
</svg>
