<svg width="107" height="107" viewBox="0 0 107 107" fill="none" xmlns="http://www.w3.org/2000/svg">
<path d="M87.2153 0H18.8949C8.45956 0 0 8.45955 0 18.8949V87.2151C0 97.6505 8.45956 106.11 18.8949 106.11H87.2153C97.6507 106.11 106.11 97.6505 106.11 87.2151V18.8949C106.11 8.45955 97.6507 0 87.2153 0Z" fill="#FFB866"/>
<path d="M55.0039 32.8418H51.1002C49.5619 32.8418 48.3149 34.0888 48.3149 35.627V55.3196C48.3149 56.8578 49.5619 58.1048 51.1002 58.1048H55.0039C56.5422 58.1048 57.7892 56.8578 57.7892 55.3196V35.627C57.7892 34.0888 56.5422 32.8418 55.0039 32.8418Z" fill="white"/>
<path d="M77.6869 31.2061V66.7766C77.3125 72.6323 72.6289 77.3114 66.7777 77.6858H39.3578C33.2526 77.2936 28.4219 72.2178 28.4219 66.0146V31.2061C28.4219 29.6687 29.6697 28.4209 31.2071 28.4209H35.1109C36.6483 28.4209 37.8961 29.6687 37.8961 31.2061V60.97C37.8961 64.9718 41.1359 68.2116 45.1377 68.2116H60.9711C64.9684 68.2116 68.2127 64.9718 68.2127 60.97V31.2061C68.2127 29.6687 69.4605 28.4209 70.9979 28.4209H74.9017C76.4391 28.4209 77.6869 29.6687 77.6869 31.2061Z" fill="white"/>
</svg>
