<?xml version="1.0" encoding="UTF-8"?>

<svg width="58" height="58" viewBox="0 0 58 58" fill="none"
  xmlns="http://www.w3.org/2000/svg">
  <path
    d="M49.7999 29C49.7999 40.4875 40.4875 49.7999 29 49.7999C17.5124 49.7999 8.2 40.4875 8.2 29C8.2 17.5124 17.5124 8.2 29 8.2C40.4875 8.2 49.7999 17.5124 49.7999 29Z"
    fill="#38A1D6" />
  <path
    d="M29 55C14.6408 55 3 43.3591 3 29C3 14.6408 14.6408 3 29 3C43.3591 3 55 14.6408 55 29C54.9837 43.3525 43.3525 54.9837 29 55ZM29 4.73333C15.598 4.73333 4.73333 15.598 4.73333 29C4.73333 42.4019 15.598 53.2665 29 53.2665C42.4019 53.2665 53.2665 42.4019 53.2665 29C53.2514 15.6043 42.3957 4.74856 29 4.73333Z"
    fill="#3D41A6" />
  <path
    d="M41.1339 28.9996C41.1339 35.7005 35.7016 41.1328 29.0007 41.1328C22.2997 41.1328 16.8674 35.7005 16.8674 28.9996C16.8674 22.2986 22.2997 16.8663 29.0007 16.8663C35.7016 16.8663 41.1339 22.2986 41.1339 28.9996Z"
    fill="#3D41A6" />
  <path fill-rule="evenodd" clip-rule="evenodd"
    d="M29.0034 58L29 58C12.9839 58 0 45.016 0 29C0 12.9839 12.9839 0 29 0C45.016 0 58 12.9839 58 29V29.0034C57.9819 45.0101 45.0101 57.9819 29.0034 58ZM53.2665 28.998C53.2504 15.6033 42.395 4.74856 29 4.73333C15.598 4.73333 4.73333 15.598 4.73333 29C4.73333 42.4013 15.5969 53.2655 28.998 53.2666L29 53.2665C42.4019 53.2665 53.2665 42.4019 53.2665 29V28.998ZM29 55C14.6408 55 3 43.3591 3 29C3 14.6408 14.6408 3 29 3H29.002C43.3596 3.00106 54.9989 14.6404 55 28.998L55 29C54.9837 43.3525 43.3525 54.9837 29 55ZM49.7999 29C49.7999 40.4875 40.4875 49.7999 29 49.7999C17.5124 49.7999 8.2 40.4875 8.2 29C8.2 17.5124 17.5124 8.2 29 8.2C40.4875 8.2 49.7999 17.5124 49.7999 29Z"
    fill="white" />
</svg>
