<?xml version="1.0" encoding="UTF-8"?>
<svg width="117" height="118" viewBox="0 0 117 118" fill="none" xmlns="http://www.w3.org/2000/svg">
      <circle cx="58.5997" cy="58.9082" r="56.9024" fill="#323640" stroke="white" stroke-width="2.75397" />
      <path d="M72.4671 83.1208L68.3914 84.4773L50.75 66.8359L53.4654 64.1191L72.4671 83.1208Z" fill="#D8D8D8" />
      <path d="M80.5765 85.9085L75.1367 91.3483L68.3993 84.4764L70.9802 68.1376C71.5031 64.8252 71.1289 61.485 69.9617 58.4379C69.9617 58.4379 69.6663 53.7661 67.7812 51.8719L70.5231 49.334C72.3647 51.204 75.725 52.6738 75.725 52.6738C77.7617 56.5171 78.8406 60.8191 78.8406 65.2055C78.8406 66.5914 78.7329 67.9863 78.5137 69.3786L76.5585 81.7571L80.5765 85.9085Z" fill="#F3F3F3" />
      <path d="M73.6308 49.334L68.125 54.8397C68.8689 55.9744 69.4843 57.1816 69.9655 58.4384L75.7299 52.6741C75.1162 51.5157 74.4154 50.3989 73.6308 49.334Z" fill="#F3F3F3" />
      <path d="M73.6317 49.331L68.1265 54.8363C67.7752 54.3004 67.3957 53.7824 66.9893 53.2811C66.5918 52.7914 66.1688 52.3196 65.7188 51.8683L71.1548 46.4297C72.0573 47.3425 72.883 48.3131 73.6317 49.331V49.331Z" fill="#B0B0B0" />
      <path d="M53.4612 64.1163L50.7457 66.833L33.0312 49.1185L35.2941 45.9492L53.4612 64.1163Z" fill="#CBCBCB" />
      <path d="M68.123 46.6794L65.7155 49.7142L65.2713 49.0744C63.3701 47.1732 59.0854 47.5566 59.0854 47.5566C56.9421 46.7358 54.6538 46.3073 52.3319 46.3073C51.3524 46.3073 50.3678 46.383 49.3857 46.5381L33.0469 49.1189L26.2891 42.2777L31.7289 36.8379L35.3136 40.5059L48.4305 38.6969C54.1352 37.9098 59.8671 38.9909 64.8172 41.6682C64.8172 41.6682 65.9337 43.1564 67.7847 45.0073C67.8334 45.056 68.0743 46.6294 68.123 46.6794V46.6794Z" fill="white" />
      <path d="M59.0703 47.5561C60.3271 48.0374 61.5343 48.6529 62.669 49.3967L68.2072 43.8585C67.1551 43.0629 66.0508 42.3496 64.9036 41.7227L59.0703 47.5561Z" fill="white" />
      <path d="M71.1556 46.428L65.7196 51.8666L65.6876 51.8345C64.7645 50.9114 63.758 50.0973 62.6875 49.3947L68.2261 43.8574C69.2017 44.5946 70.1338 45.4023 71.0108 46.2793C71.0608 46.3293 71.1095 46.378 71.1556 46.428V46.428Z" fill="#BFBFBF" />
      <path d="M83.34 36.8848L41.6211 78.6036L40.2891 77.2715L59.0679 57.3922L82.0079 35.5527L83.34 36.8848Z" fill="white" />
      <path d="M38.9141 75.8828L80.6266 34.1703L82.0136 35.5573L40.3011 77.2698L38.9141 75.8828Z" fill="#F3F3F3" />
      <path d="M44.3854 82.039L34.8275 91.5969L32.3672 85.1993L36.0193 80.1147L42.4174 75.1504L44.3854 82.039Z" fill="#F3F3F3" />
      <path d="M42.4165 75.1496V75.1509L32.3663 85.1998L25.9688 82.7395L35.5266 73.1816L42.4165 75.1496Z" fill="white" />
      <path d="M91.2483 26.2734L91.2265 26.3491L77.0608 40.5148L77.0121 40.5096L75.9531 30.6902L91.2483 26.2734Z" fill="#F3F3F3" />
      <path d="M91.2282 26.3477L86.8332 41.5672L77.0625 40.5133L83.0039 33.0177L91.2282 26.3477Z" fill="white" />
    </svg>
